<?xml version="1.0" encoding="UTF-8" standalone="no"?>
<svg
   xmlns:dc="http://purl.org/dc/elements/1.1/"
   xmlns:cc="http://creativecommons.org/ns#"
   xmlns:rdf="http://www.w3.org/1999/02/22-rdf-syntax-ns#"
   xmlns:svg="http://www.w3.org/2000/svg"
   xmlns="http://www.w3.org/2000/svg"
   version="1.1"
   id="svg2"
   viewBox="0 0 501.03685 80.208751"
   height="22.636692mm"
   width="141.40373mm">
  <defs
     id="defs4">
    <clipPath
       clipPathUnits="userSpaceOnUse"
       id="clipPath4154">
      <path
         d="m 0,595.28 841.89,0 L 841.89,0 0,0 0,595.28 Z"
         id="path4156" />
    </clipPath>
    <clipPath
       clipPathUnits="userSpaceOnUse"
       id="clipPath4178">
      <path
         d="m 0,595.28 841.89,0 L 841.89,0 0,0 0,595.28 Z"
         id="path4180" />
    </clipPath>
    <clipPath
       clipPathUnits="userSpaceOnUse"
       id="clipPath4233">
      <path
         d="m 0,650.945 841.89,0 L 841.89,0 0,0 0,650.945 Z"
         id="path4235" />
    </clipPath>
  </defs>
  <metadata
     id="metadata7">
    <rdf:RDF>
      <cc:Work
         rdf:about="">
        <dc:format>image/svg+xml</dc:format>
        <dc:type
           rdf:resource="http://purl.org/dc/dcmitype/StillImage" />
        <dc:title></dc:title>
      </cc:Work>
    </rdf:RDF>
  </metadata>
  <g
     transform="translate(-127.78609,-391.80519)"
     id="layer1">
    <g
       transform="matrix(1.25,0,0,-1.25,235.15546,431.90981)"
       id="g4237">
      <path
         id="path4239"
         style="fill:#191919;fill-opacity:1;fill-rule:nonzero;stroke:none"
         d="m 0,0 c 0,17.87 13.273,31.575 31.576,31.575 11.016,0 20.733,-5.465 26.024,-14.053 L 45.629,10.583 c -2.69,4.684 -7.895,7.46 -14.053,7.46 -10.756,0 -17.697,-7.2 -17.697,-18.043 0,-10.843 6.941,-18.044 17.697,-18.044 6.158,0 11.451,2.776 14.053,7.461 L 57.6,-17.522 C 52.395,-26.11 42.68,-31.575 31.576,-31.575 13.273,-31.575 0,-17.87 0,0" />
    </g>
    <g
       transform="matrix(1.25,0,0,-1.25,235.15546,431.90981)"
       id="g4241">
      <path
         id="path4243"
         style="fill:none;stroke:#ffffff;stroke-width:1.01600003;stroke-linecap:butt;stroke-linejoin:miter;stroke-miterlimit:10;stroke-dasharray:none;stroke-opacity:1"
         d="m 0,0 c 0,17.87 13.273,31.575 31.576,31.575 11.016,0 20.733,-5.465 26.024,-14.053 L 45.629,10.583 c -2.69,4.684 -7.895,7.46 -14.053,7.46 -10.756,0 -17.697,-7.2 -17.697,-18.043 0,-10.843 6.941,-18.044 17.697,-18.044 6.158,0 11.451,2.776 14.053,7.461 L 57.6,-17.522 C 52.395,-26.11 42.68,-31.575 31.576,-31.575 13.273,-31.575 0,-17.87 0,0 Z" />
    </g>
    <g
       transform="matrix(1.25,0,0,-1.25,408.87371,393.95931)"
       id="g4245">
      <path
         id="path4247"
         style="fill:#191919;fill-opacity:1;fill-rule:nonzero;stroke:none"
         d="m 0,0 0,-60.722 -13.881,0 0,24.116 -19.084,0 0,-24.116 -13.879,0 0,60.722 13.879,0 0,-23.247 19.084,0 0,23.247 L 0,0 Z" />
    </g>
    <g
       transform="matrix(1.25,0,0,-1.25,408.87371,393.95931)"
       id="g4249">
      <path
         id="path4251"
         style="fill:none;stroke:#ffffff;stroke-width:1.01600003;stroke-linecap:butt;stroke-linejoin:miter;stroke-miterlimit:10;stroke-dasharray:none;stroke-opacity:1"
         d="m 0,0 0,-60.722 -13.881,0 0,24.116 -19.084,0 0,-24.116 -13.879,0 0,60.722 13.879,0 0,-23.247 19.084,0 0,23.247 L 0,0 Z" />
    </g>
    <g
       transform="matrix(1.25,0,0,-1.25,514.00071,431.90981)"
       id="g4253">
      <path
         id="path4255"
         style="fill:#191919;fill-opacity:1;fill-rule:nonzero;stroke:none"
         d="m 0,0 c 0,10.843 -7.807,18.043 -17.695,18.043 -9.889,0 -17.698,-7.2 -17.698,-18.043 0,-10.843 7.809,-18.044 17.698,-18.044 C -7.807,-18.044 0,-10.843 0,0 m -49.271,0 c 0,17.87 14.14,31.575 31.576,31.575 17.435,0 31.576,-13.705 31.576,-31.575 0,-17.87 -14.141,-31.575 -31.576,-31.575 -17.436,0 -31.576,13.705 -31.576,31.575" />
    </g>
    <g
       transform="matrix(1.25,0,0,-1.25,514.00071,431.90981)"
       id="g4257">
      <path
         id="path4259"
         style="fill:none;stroke:#ffffff;stroke-width:1.01600003;stroke-linecap:butt;stroke-linejoin:miter;stroke-miterlimit:10;stroke-dasharray:none;stroke-opacity:1"
         d="m 0,0 c 0,10.843 -7.807,18.043 -17.695,18.043 -9.889,0 -17.698,-7.2 -17.698,-18.043 0,-10.843 7.809,-18.044 17.698,-18.044 C -7.807,-18.044 0,-10.843 0,0 Z m -49.271,0 c 0,17.87 14.14,31.575 31.576,31.575 17.435,0 31.576,-13.705 31.576,-31.575 0,-17.87 -14.141,-31.575 -31.576,-31.575 -17.436,0 -31.576,13.705 -31.576,31.575 z" />
    </g>
    <g
       transform="matrix(1.25,0,0,-1.25,569.63546,452.62144)"
       id="g4261">
      <path
         id="path4263"
         style="fill:#191919;fill-opacity:1;fill-rule:nonzero;stroke:none"
         d="m 0,0 11.971,6.94 c 2.168,-5.031 5.898,-8.415 12.752,-8.415 6.591,0 8.24,2.604 8.24,4.946 0,3.73 -3.471,5.205 -12.578,7.72 -9.022,2.516 -17.869,6.853 -17.869,18.477 0,11.711 9.888,18.477 20.384,18.477 9.977,0 17.784,-4.772 22.207,-13.706 L 33.396,27.586 c -2.082,4.338 -4.945,7.026 -10.496,7.026 -4.338,0 -6.505,-2.169 -6.505,-4.597 0,-2.777 1.474,-4.685 10.929,-7.547 9.196,-2.777 19.518,-5.986 19.518,-18.823 0,-11.711 -9.369,-18.651 -22.553,-18.651 C 11.537,-15.006 3.383,-8.934 0,0" />
    </g>
    <g
       transform="matrix(1.25,0,0,-1.25,569.63546,452.62144)"
       id="g4265">
      <path
         id="path4267"
         style="fill:none;stroke:#ffffff;stroke-width:1.01600003;stroke-linecap:butt;stroke-linejoin:miter;stroke-miterlimit:10;stroke-dasharray:none;stroke-opacity:1"
         d="m 0,0 11.971,6.94 c 2.168,-5.031 5.898,-8.415 12.752,-8.415 6.591,0 8.24,2.604 8.24,4.946 0,3.73 -3.471,5.205 -12.578,7.72 -9.022,2.516 -17.869,6.853 -17.869,18.477 0,11.711 9.888,18.477 20.384,18.477 9.977,0 17.784,-4.772 22.207,-13.706 L 33.396,27.586 c -2.082,4.338 -4.945,7.026 -10.496,7.026 -4.338,0 -6.505,-2.169 -6.505,-4.597 0,-2.777 1.474,-4.685 10.929,-7.547 9.196,-2.777 19.518,-5.986 19.518,-18.823 0,-11.711 -9.369,-18.651 -22.553,-18.651 C 11.537,-15.006 3.383,-8.934 0,0 Z" />
    </g>
    <g
       transform="matrix(1.25,0,0,-1.25,159.56346,447.31506)"
       id="g4269">
      <path
         id="path4271"
         style="fill:none;stroke:#191919;stroke-width:11;stroke-linecap:butt;stroke-linejoin:miter;stroke-miterlimit:10;stroke-dasharray:none;stroke-opacity:1"
         d="m 0,0 0,36.16 22.246,0" />
    </g>
    <g
       transform="matrix(1.25,0,0,-1.25,175.97584,435.07994)"
       id="g4273">
      <path
         id="path4275"
         style="fill:none;stroke:#191919;stroke-width:11;stroke-linecap:butt;stroke-linejoin:miter;stroke-miterlimit:10;stroke-dasharray:none;stroke-opacity:1"
         d="M 0,0 10.057,10.117" />
    </g>
    <g
       transform="matrix(1.25,0,0,-1.25,32.931335,290.66106)"
       id="g4277" />
    <g
       transform="matrix(1.25,0,0,-1.25,193.04859,454.78456)"
       id="g4281">
      <path
         id="path4283"
         style="fill:none;stroke:#191919;stroke-width:10.49199963;stroke-linecap:butt;stroke-linejoin:miter;stroke-miterlimit:10;stroke-dasharray:none;stroke-opacity:1"
         d="m 0,0 c -4.979,-4.98 -11.857,-8.062 -19.455,-8.062 -15.192,0 -27.509,12.317 -27.509,27.509 0,7.596 3.079,14.473 8.058,19.451" />
    </g>
    <g
       transform="matrix(1.25,0,0,-1.25,439.28633,150.21056)"
       id="g4285" />
  </g>
</svg>
